<svg xmlns="http://www.w3.org/2000/svg" width="1024" height="1024" viewBox="0 0 1024 1024" role="img" aria-labelledby="title desc">
  <title id="title">Ace Domain app icon master</title>
  <desc id="desc">1024 pixel source-ready rounded-square Ace Domain app icon.</desc>
  <defs>
    <linearGradient id="iconBase" x1="154" x2="870" y1="101" y2="923" gradientUnits="userSpaceOnUse">
      <stop stop-color="#0F172A"/>
      <stop offset=".42" stop-color="#061735"/>
      <stop offset="1" stop-color="#020712"/>
    </linearGradient>
    <radialGradient id="iconGlow" cx="0" cy="0" r="1" gradientTransform="matrix(0 480 -480 0 702 240)" gradientUnits="userSpaceOnUse">
      <stop stop-color="#00B2FF" stop-opacity=".38"/>
      <stop offset=".58" stop-color="#0D47FF" stop-opacity=".12"/>
      <stop offset="1" stop-color="#020712" stop-opacity="0"/>
    </radialGradient>
    <linearGradient id="iconMark" x1="236" x2="788" y1="374" y2="606" gradientUnits="userSpaceOnUse">
      <stop stop-color="#0D47FF"/>
      <stop offset=".48" stop-color="#008BFF"/>
      <stop offset="1" stop-color="#00F0FF"/>
    </linearGradient>
    <linearGradient id="iconNode" x1="320" x2="438" y1="636" y2="486" gradientUnits="userSpaceOnUse">
      <stop stop-color="#00F0FF"/>
      <stop offset="1" stop-color="#70F8FF"/>
    </linearGradient>
  </defs>
  <rect width="1024" height="1024" rx="228" fill="url(#iconBase)"/>
  <rect x="24" y="24" width="976" height="976" rx="212" fill="none" stroke="#FFFFFF" stroke-opacity=".18" stroke-width="4"/>
  <path d="M0 0h1024v1024H0z" fill="url(#iconGlow)"/>
  <path d="M237 672 363 404c10-20 24-30 43-30h55l147 298h-88l-28-61H366l-28 61H237Zm159-131h65l-33-72-32 72Z" fill="url(#iconMark)"/>
  <path d="M539 374h138c91 0 157 61 157 149 0 87-66 149-157 149H492l47-72h133c46 0 77-31 77-77 0-47-31-77-77-77h-87l-46-72Z" fill="url(#iconMark)"/>
  <path d="M340 633 428 506" stroke="url(#iconNode)" stroke-linecap="round" stroke-width="26"/>
  <circle cx="340" cy="633" r="32" fill="url(#iconNode)"/>
  <circle cx="428" cy="506" r="36" fill="url(#iconNode)"/>
  <circle cx="681" cy="634" r="34" fill="#0D47FF"/>
  <circle cx="681" cy="634" r="17" fill="#00B2FF" opacity=".86"/>
</svg>
