<svg xmlns="http://www.w3.org/2000/svg" viewBox="0 0 128 78" role="img" aria-labelledby="title desc">
  <title id="title">Ace Domain AD mark</title>
  <desc id="desc">Premium electric-blue Ace Domain AD symbol with connected node details.</desc>
  <defs>
    <linearGradient id="adMarkBlue" x1="7" x2="119" y1="16" y2="63" gradientUnits="userSpaceOnUse">
      <stop stop-color="#0D47FF"/>
      <stop offset=".48" stop-color="#008BFF"/>
      <stop offset="1" stop-color="#00F0FF"/>
    </linearGradient>
    <linearGradient id="adMarkShine" x1="18" x2="105" y1="9" y2="68" gradientUnits="userSpaceOnUse">
      <stop stop-color="#FFFFFF" stop-opacity=".86"/>
      <stop offset=".42" stop-color="#BFEAFF" stop-opacity=".22"/>
      <stop offset="1" stop-color="#FFFFFF" stop-opacity="0"/>
    </linearGradient>
    <linearGradient id="adMarkNode" x1="24" x2="48" y1="56" y2="32" gradientUnits="userSpaceOnUse">
      <stop stop-color="#00F0FF"/>
      <stop offset="1" stop-color="#70F8FF"/>
    </linearGradient>
  </defs>
  <path d="M6 66 31 13c1.8-3.8 4.4-5.7 8-5.7h10.8L79 66H61.7l-5.5-12.1H31.4L25.9 66H6Zm31.4-25.8h12.8L43.8 26l-6.4 14.2Z" fill="url(#adMarkBlue)"/>
  <path d="M65.4 7.3h27.2c18 0 31 12 31 29.4 0 17.1-13 29.3-31 29.3H56.2l9.2-14.2h26.2c9 0 15.2-6 15.2-15.1 0-9.2-6.2-15.1-15.2-15.1H74.5L65.4 7.3Z" fill="url(#adMarkBlue)"/>
  <path d="M11 63.8 34.6 13.6c1.2-2.6 2.7-3.8 4.9-3.8h9.1M67.5 10.2h24.9c16.6 0 28.3 10.7 28.3 26.5" fill="none" stroke="url(#adMarkShine)" stroke-linecap="round" stroke-width="2.6" opacity=".8"/>
  <path d="M29.6 58.4 43.7 38" stroke="url(#adMarkNode)" stroke-linecap="round" stroke-width="5"/>
  <circle cx="29.6" cy="58.4" r="6.2" fill="url(#adMarkNode)"/>
  <circle cx="43.7" cy="38" r="7" fill="url(#adMarkNode)"/>
  <circle cx="93.5" cy="58.7" r="6.5" fill="#0D47FF"/>
  <circle cx="93.5" cy="58.7" r="3.2" fill="#00B2FF" opacity=".85"/>
</svg>
